<?xml version='1.0' encoding='utf-8'?>
<svg xmlns="http://www.w3.org/2000/svg" width="1400" height="860" viewBox="0 0 700 430" fill="none" shape-rendering="geometricPrecision" aria-labelledby="title desc" role="img">
  <title>Charaideo Reserves stacked logo and wordmark</title>
  <desc>Existing Charaideo Reserves logo centered above the existing CHARAIDEO RESERVES wordmark with trademark symbol.</desc>
  <g transform="translate(207 -26) scale(0.85)">
    <path d="M106.500 110.500 L216.498 110.500 L223.482 121.849 L143.166 121.849 C 142.293 124.468 142.293 127.087 144.912 130.579 C 150.150 137.563 156.261 141.055 164.118 145.420 C 172.848 149.785 180.705 152.404 188.562 155.023 C 195.546 155.896 200.784 159.388 205.149 165.499 C 207.768 168.991 208.641 174.229 208.641 179.467 C 208.641 190.816 204.276 203.038 199.038 212.641 C 192.927 222.244 182.451 231.847 170.229 235.339 C 163.245 237.958 152.769 236.212 145.785 233.593 C 136.182 230.101 131.817 224.863 130.071 217.879 C 129.198 215.260 129.198 213.514 129.198 210.022 L129.198 122.722 L114.357 121.849 Z M142.293 142.801 C 145.785 148.039 151.023 154.150 156.261 159.388 C 164.118 165.499 172.848 169.864 180.705 171.610 C 184.197 172.483 185.943 172.483 187.689 174.229 C 188.562 177.721 187.689 182.086 186.816 185.578 C 185.070 195.181 180.705 203.038 174.594 210.022 C 169.356 215.260 163.245 219.625 158.880 220.498 C 154.515 221.371 150.150 219.625 146.658 217.006 C 144.039 215.260 142.293 213.514 142.293 210.895 L142.293 142.801 Z" fill="#5C171C" fill-rule="evenodd" clip-rule="evenodd" aria-label="Bengali letter Cha" role="img" />
    <path d="m44.6 226.9c67.2-44.8 131.6 56 238-16.8" fill="none" stroke="#78908C" stroke-linecap="round" stroke-width="3" transform="translate(0,-2)" />
    <g>
      <circle cx="255" cy="108.5" r="21" fill="#FFF8EA" stroke="#5C171C" stroke-width="0.25" />
      <circle cx="255" cy="108.5" r="15" fill="#FFF8EA" stroke="#5C171C" stroke-width="1.5" />
      <circle cx="255" cy="108.5" r="13" fill="#B87936" stroke="#B87936" stroke-width="1.9" />
      <path d="m246.5 104.2c4.5-3.6 12.9-4.3 19.2-2" fill="none" opacity=".95" stroke="#FFF8EA" stroke-linecap="round" stroke-width=".75" />
    </g>
    <g transform="rotate(0 255 108.5)">
      <path d="m270 103h7.6537c4.8489 0 7.3463 2.2 7.3463 5.5s-2.444 5.5-7.3463 5.5H270" fill="none" stroke="#5C171C" stroke-linecap="round" stroke-linejoin="round" stroke-width="1.5" />
    </g>
  </g>
  <g transform="translate(161.65 265) scale(3.6)" aria-label="Updated Charaideo Reserves wordmark">
    <g fill="none" stroke="#B9B5AB" stroke-linecap="round" stroke-linejoin="round" stroke-width="0.243" aria-label="Charaideo Maidan structure" opacity="0.8" transform="translate(-84.6 -9.72) scale(0.18)">
      <path d="m470 176c50-39 114-68 180-79 19-3 36-5 50-5s31 2 50 5c66 11 130 40 180 60 26 10 51 16 75 19" />
      <path d="m686 97v-15h5v-10c0-5.5 3.5-9.5 9-9.5s9 4 9 9.5v10h5v15" />
      <path d="m700 62.5v-8.5" />
    </g>
    <g fill="#132A1F" aria-label="CHARAIDEO">
      <path d="M784 -20Q591 -20 439.0 71.5Q287 163 200.0 334.5Q113 506 113 744Q113 983 200.0 1154.5Q287 1326 439.0 1418.0Q591 1510 784 1510Q902 1510 1005.5 1476.0Q1109 1442 1190.5 1377.0Q1272 1312 1325.5 1219.0Q1379 1126 1398 1008H1169Q1155 1079 1119.5 1133.5Q1084 1188 1033.0 1226.0Q982 1264 919.0 1283.0Q856 1302 786 1302Q658 1302 556.5 1237.5Q455 1173 397.0 1048.5Q339 924 339 744Q339 564 398.0 439.5Q457 315 558.0 251.5Q659 188 786 188Q856 188 918.5 207.5Q981 227 1032.5 264.5Q1084 302 1119.5 357.0Q1155 412 1169 482H1399Q1382 372 1330.0 280.5Q1278 189 1197.0 121.0Q1116 53 1011.5 16.5Q907 -20 784 -20Z" transform="translate(1.0000 15) scale(0.00585938 -0.00585938)" />
      <path d="M165 0V1490H393V860H1131V1490H1360V0H1131V664H393V0Z" transform="translate(12.8008 15) scale(0.00585938 -0.00585938)" />
      <path d="M51 0 581 1490H861L1401 0H1154L864 829Q830 930 789.5 1067.0Q749 1204 696 1396H742Q691 1202 650.5 1063.5Q610 925 579 829L298 0ZM338 393V583H1113V393Z" transform="translate(24.7363 15) scale(0.00585938 -0.00585938)" />
      <path d="M165 0V1490H699Q871 1490 986.0 1430.5Q1101 1371 1158.0 1265.0Q1215 1159 1215 1022Q1215 884 1157.5 780.5Q1100 677 985.0 620.0Q870 563 697 563H296V758H675Q785 758 852.5 789.5Q920 821 952.0 880.0Q984 939 984 1022Q984 1106 952.0 1167.0Q920 1228 852.0 1261.5Q784 1295 673 1295H393V0ZM1012 0 651 673H904L1271 0Z" transform="translate(36.2441 15) scale(0.00585938 -0.00585938)" />
      <path d="M51 0 581 1490H861L1401 0H1154L864 829Q830 930 789.5 1067.0Q749 1204 696 1396H742Q691 1202 650.5 1063.5Q610 925 579 829L298 0ZM338 393V583H1113V393Z" transform="translate(47.0195 15) scale(0.00585938 -0.00585938)" />
      <path d="M393 1490V0H165V1490Z" transform="translate(58.5273 15) scale(0.00585938 -0.00585938)" />
      <path d="M649 0H281V200H637Q806 200 918.0 263.0Q1030 326 1086.0 448.5Q1142 571 1142 747Q1142 922 1086.5 1043.0Q1031 1164 921.5 1227.0Q812 1290 649 1290H273V1490H664Q884 1490 1041.0 1401.0Q1198 1312 1282.0 1145.5Q1366 979 1366 747Q1366 514 1281.5 347.0Q1197 180 1036.5 90.0Q876 0 649 0ZM393 1490V0H165V1490Z" transform="translate(64.7969 15) scale(0.00585938 -0.00585938)" />
      <path d="M165 0V1490H1103V1294H393V850H1052V655H393V196H1109V0Z" transform="translate(76.4570 15) scale(0.00585938 -0.00585938)" />
      <path d="M786 -20Q593 -20 440.5 71.5Q288 163 200.5 334.5Q113 506 113 744Q113 983 200.5 1154.5Q288 1326 440.5 1418.0Q593 1510 786 1510Q979 1510 1130.5 1418.0Q1282 1326 1369.5 1154.5Q1457 983 1457 744Q1457 506 1369.5 334.5Q1282 163 1130.5 71.5Q979 -20 786 -20ZM786 188Q913 188 1013.5 251.5Q1114 315 1172.5 439.5Q1231 564 1231 744Q1231 926 1172.5 1050.5Q1114 1175 1013.5 1238.5Q913 1302 786 1302Q658 1302 557.0 1238.0Q456 1174 397.5 1049.5Q339 925 339 744Q339 564 397.5 440.0Q456 316 557.0 252.0Q658 188 786 188Z" transform="translate(86.6934 15) scale(0.00585938 -0.00585938)" />
    </g>
    <g fill="#5C171C" aria-label="Reserves" transform="translate(0 -4.28)">
      <path d="M450 -9Q363 -9 339 105L316 216Q305 270 291.5 298.0Q278 326 254.5 336.0Q231 346 190 346Q176 346 168.0 338.5Q160 331 160 320V70Q160 49 168.0 41.5Q176 34 204 29L241 23Q252 21 252 12Q252 0 237 0H34Q19 0 19 11Q19 20 32 23L55 27Q76 31 82.5 38.0Q89 45 89 66V654Q89 675 82.5 682.0Q76 689 55 693L32 697Q19 700 19 709Q19 720 34 720H237Q296 720 342.0 697.0Q388 674 414.0 633.5Q440 593 440 540Q440 477 402.0 426.5Q364 376 306 355Q299 353 298.5 348.5Q298 344 305 341Q337 326 355.5 299.0Q374 272 384 227L406 125Q417 73 432.0 51.0Q447 29 470 29Q478 29 484.5 31.5Q491 34 501 41Q509 46 516.0 43.5Q523 41 523 33Q523 16 501.0 3.5Q479 -9 450 -9ZM227 371Q295 371 330.0 416.5Q365 462 365 538Q365 612 324.5 653.5Q284 695 213 695Q160 695 160 655V426Q160 371 227 371Z" transform="translate(1.0000 43) scale(0.02600000 -0.02600000)" />
      <path d="M192 -9Q144 -9 106.0 23.0Q68 55 45.5 113.5Q23 172 23 249Q23 328 46.0 388.0Q69 448 109.0 482.0Q149 516 198 516Q257 516 293.5 467.5Q330 419 330 310Q330 277 305 277H115Q95 277 95 254Q95 148 126.0 95.0Q157 42 205 42Q243 42 267.0 69.0Q291 96 306 160Q309 171 319 171Q331 171 328 151Q312 62 277.0 26.5Q242 -9 192 -9ZM112 302H213Q261 302 261 352Q261 417 245.0 454.0Q229 491 197 491Q158 491 131.5 446.0Q105 401 97 318Q95 302 112 302Z" transform="translate(13.8180 43) scale(0.02600000 -0.02600000)" />
      <path d="M131 -9Q108 -9 82.0 -3.5Q56 2 40 10Q31 15 31 27L28 139Q28 156 41 156Q52 156 56 140Q73 69 97.5 43.0Q122 17 157 17Q186 17 205.0 39.5Q224 62 224 102Q224 142 202.0 173.0Q180 204 128 241Q76 276 52.0 311.5Q28 347 28 389Q28 446 68.0 481.0Q108 516 174 516Q194 516 213.0 511.5Q232 507 247 497Q256 491 256 481L258 371Q258 356 246 356Q239 356 236.0 360.5Q233 365 231 372Q211 437 191.0 462.5Q171 488 142 488Q116 488 99.0 470.0Q82 452 82 425Q82 390 103 364.0Q124 338 179 300Q229 264 254.5 222.5Q280 181 280 132Q280 68 239.0 29.5Q198 -9 131 -9Z" transform="translate(22.5280 43) scale(0.02600000 -0.02600000)" />
      <path d="M192 -9Q144 -9 106.0 23.0Q68 55 45.5 113.5Q23 172 23 249Q23 328 46.0 388.0Q69 448 109.0 482.0Q149 516 198 516Q257 516 293.5 467.5Q330 419 330 310Q330 277 305 277H115Q95 277 95 254Q95 148 126 95.0Q157 42 205 42Q243 42 267 69.0Q291 96 306 160Q309 171 319 171Q331 171 328 151Q312 62 277 26.5Q242 -9 192 -9ZM112 302H213Q261 302 261 352Q261 417 245 454Q229 491 197 491Q158 491 131.5 446Q105 401 97 318Q95 302 112 302Z" transform="translate(30.0160 43) scale(0.02600000 -0.02600000)" />
      <path d="M154 446Q195 516 253 516Q286 516 302 496.5Q318 477 318 453Q318 434 308.5 422Q299 410 279 410Q263 410 255.5 417.5Q248 425 243.5 435Q239 445 233 452.5Q227 460 213 460Q195 460 179 438.5Q163 417 152.5 381Q142 345 142 299V67Q142 46 148.5 37Q155 28 176 26L203 23Q214 21 214 12Q214 0 199 0H30Q15 0 15 11Q15 20 28 23L40 25Q61 29 67.5 37.5Q74 46 74 67V403Q74 421 68.5 427.5Q63 434 49 436L28 439Q15 440 15 450Q15 458 31 461Q62 466 78.5 477Q95 488 113 504Q122 513 128 513Q137 513 137 501V447Q137 440 143 438.5Q149 437 154 446Z" transform="translate(38.7260 43) scale(0.02600000 -0.02600000)" />
      <path d="M194 -9Q185 -9 181 2L48 443Q41 467 34.5 474Q28 481 14 484L-1 487Q-14 490 -14 500Q-14 510 0 510H165Q179 510 179 500Q179 489 166 487L150 485Q126 482 120 473.5Q114 465 120 443L203 154Q206 143 213 143Q220 143 223 154L304 425Q312 452 308.5 465.5Q305 479 280 483L259 487Q246 490 246 500Q246 510 260 510H387Q401 510 401 499Q401 489 389 485L380 482Q365 477 354.5 464Q344 451 334 419L207 2Q203 -9 194 -9Z" transform="translate(46.4740 43) scale(0.02600000 -0.02600000)" />
      <path d="M192 -9Q144 -9 106 23Q68 55 45.5 113.5Q23 172 23 249Q23 328 46 388Q69 448 109 482Q149 516 198 516Q257 516 293.5 467.5Q330 419 330 310Q330 277 305 277H115Q95 277 95 254Q95 148 126 95Q157 42 205 42Q243 42 267 69Q291 96 306 160Q309 171 319 171Q331 171 328 151Q312 62 277 26.5Q242 -9 192 -9ZM112 302H213Q261 302 261 352Q261 417 245 454Q229 491 197 491Q158 491 131 446Q105 401 97 318Q95 302 112 302Z" transform="translate(56.1720 43) scale(0.02600000 -0.02600000)" />
      <path d="M131 -9Q108 -9 82 -3.5Q56 2 40 10Q31 15 31 27L28 139Q28 156 41 156Q52 156 56 140Q73 69 97.5 43Q122 17 157 17Q186 17 205 39.5Q224 62 224 102Q224 142 202 173Q180 204 128 241Q76 276 52 311.5Q28 347 28 389Q28 446 68 481Q108 516 174 516Q194 516 213 511.5Q232 507 247 497Q256 491 256 481L258 371Q258 356 246 356Q239 356 236 360.5Q233 365 231 372Q211 437 191 462.5Q171 488 142 488Q116 488 99 470Q82 452 82 425Q82 390 103 364Q124 338 179 300Q229 264 254.5 222.5Q280 181 280 132Q280 68 239 29.5Q198 -9 131 -9Z" transform="translate(64.8820 43) scale(0.02600000 -0.02600000)" />
    </g>
    <g fill="#5C171C" aria-label="TM">
      <path d="M90 1294V1490H1247V1294H784V0H555V1294Z" transform="translate(96.5926 6.3) scale(0.00219727 -0.00219727)" />
      <path d="M165 0V1490H501L826 635Q840 597 857.5 539.0Q875 481 894.0 413.0Q913 345 930.0 279.0Q947 213 960 160H912Q925 210 942.0 275.5Q959 341 978.0 409.0Q997 477 1015.0 537.0Q1033 597 1047 635L1367 1490H1705V0H1478V802Q1478 848 1479.0 912.0Q1480 976 1481.5 1047.5Q1483 1119 1484.5 1192.0Q1486 1265 1487 1332H1504Q1484 1259 1460.5 1181.5Q1437 1104 1414.5 1032.0Q1392 960 1371.5 900.5Q1351 841 1337 802L1032 0H837L528 802Q513 840 493.5 898.5Q474 957 451.0 1028.5Q428 1100 404.0 1177.5Q380 1255 356 1332H376Q378 1271 379.5 1199.5Q381 1128 382.5 1055.0Q384 982 385.5 916.5Q387 851 387 802V0Z" transform="translate(99.5303 6.3) scale(0.00219727 -0.00219727)" />
    </g>
  </g>
</svg>